<svg height="512pt" viewBox="0 0 512 512" width="512pt" xmlns="http://www.w3.org/2000/svg"><path d="m90 316v60c0 8.398438-6.597656 15-15 15s-15-6.601562-15-15v-60c0-8.402344 6.597656-15 15-15s15 6.597656 15 15zm0 0" fill="#575f64"/><path d="m90 316v60c0 8.398438-6.597656 15-15 15v-90c8.402344 0 15 6.597656 15 15zm0 0" fill="#32393f"/><path d="m90 135v61c0 8.398438-6.597656 15-15 15s-15-6.601562-15-15v-61c0-8.402344 6.597656-15 15-15s15 6.597656 15 15zm0 0" fill="#575f64"/><path d="m90 135v61c0 8.398438-6.597656 15-15 15v-91c8.402344 0 15 6.597656 15 15zm0 0" fill="#32393f"/><path d="m141.597656 212.5-60-30c-2.097656-.902344-4.199218-1.5-6.597656-1.5s-4.5.597656-6.597656 1.5l-60 30c-5.101563 2.699219-8.402344 7.800781-8.402344 13.5v60c0 5.699219 3.300781 10.800781 8.402344 13.5l60 30c2.097656.898438 4.199218 1.5 6.597656 1.5s4.5-.601562 6.597656-1.5l60-30c5.101563-2.699219 8.402344-7.800781 8.402344-13.5v-60c0-5.699219-3.300781-10.800781-8.402344-13.5zm0 0" fill="#ff9100"/><path d="m150 226v60c0 5.699219-3.300781 10.800781-8.402344 13.5l-60 30c-2.097656.898438-4.199218 1.5-6.597656 1.5v-150c2.402344 0 4.5.597656 6.597656 1.5l60 30c5.101563 2.699219 8.402344 7.800781 8.402344 13.5zm0 0" fill="#ff641a"/><path d="m141.597656 31.5-60-30c-2.097656-.902344-4.195312-1.5-6.597656-1.5s-4.5.597656-6.597656 1.5l-60 30c-5.101563 2.699219-8.402344 7.800781-8.402344 13.5v60c0 5.699219 3.300781 10.800781 8.402344 13.5l60 30c2.097656.898438 4.199218 1.5 6.597656 1.5s4.5-.601562 6.597656-1.5l60-30c5.101563-2.699219 8.402344-7.800781 8.402344-13.5v-60c0-5.699219-3.300781-10.800781-8.402344-13.5zm0 0" fill="#ff9100"/><path d="m150 45v60c0 5.699219-3.300781 10.800781-8.402344 13.5l-60 30c-2.097656.898438-4.199218 1.5-6.597656 1.5v-150c2.402344 0 4.5.597656 6.597656 1.5l60 30c5.101563 2.699219 8.402344 7.800781 8.402344 13.5zm0 0" fill="#ff641a"/><path d="m141.597656 392.5-60-30c-2.097656-.902344-4.199218-1.5-6.597656-1.5s-4.5.597656-6.597656 1.5l-60 30c-5.101563 2.699219-8.402344 7.800781-8.402344 13.5v61c0 5.699219 3.300781 10.800781 8.402344 13.5l60 30c2.097656.898438 4.199218 1.5 6.597656 1.5s4.5-.601562 6.597656-1.5l60-30c5.101563-2.699219 8.402344-7.800781 8.402344-13.5v-61c0-5.699219-3.300781-10.800781-8.402344-13.5zm0 0" fill="#ff9100"/><path d="m150 406v61c0 5.699219-3.300781 10.800781-8.402344 13.5l-60 30c-2.097656.898438-4.199218 1.5-6.597656 1.5v-151c2.402344 0 4.5.597656 6.597656 1.5l60 30c5.101563 2.699219 8.402344 7.800781 8.402344 13.5zm0 0" fill="#ff641a"/><g fill="#00c8c8"><path d="m497 60h-302c-8.289062 0-15-6.710938-15-15s6.710938-15 15-15h302c8.289062 0 15 6.710938 15 15s-6.710938 15-15 15zm0 0"/><path d="m346 120h-151c-8.289062 0-15-6.710938-15-15s6.710938-15 15-15h151c8.289062 0 15 6.710938 15 15s-6.710938 15-15 15zm0 0"/><path d="m346 301h-151c-8.289062 0-15-6.710938-15-15s6.710938-15 15-15h151c8.289062 0 15 6.710938 15 15s-6.710938 15-15 15zm0 0"/><path d="m346 481h-151c-8.289062 0-15-6.710938-15-15s6.710938-15 15-15h151c8.289062 0 15 6.710938 15 15s-6.710938 15-15 15zm0 0"/><path d="m497 241h-302c-8.289062 0-15-6.710938-15-15s6.710938-15 15-15h302c8.289062 0 15 6.710938 15 15s-6.710938 15-15 15zm0 0"/><path d="m497 421h-302c-8.289062 0-15-6.710938-15-15s6.710938-15 15-15h302c8.289062 0 15 6.710938 15 15s-6.710938 15-15 15zm0 0"/></g><path d="m90 75c0 8.398438-6.597656 15-15 15s-15-6.601562-15-15c0-8.402344 6.597656-15 15-15s15 6.597656 15 15zm0 0" fill="#575f64"/><path d="m90 256c0 8.398438-6.597656 15-15 15s-15-6.601562-15-15c0-8.402344 6.597656-15 15-15s15 6.597656 15 15zm0 0" fill="#575f64"/><path d="m90 436c0 8.398438-6.597656 15-15 15s-15-6.601562-15-15c0-8.402344 6.597656-15 15-15s15 6.597656 15 15zm0 0" fill="#575f64"/><path d="m90 436c0 8.398438-6.597656 15-15 15v-30c8.402344 0 15 6.597656 15 15zm0 0" fill="#32393f"/><path d="m90 256c0 8.398438-6.597656 15-15 15v-30c8.402344 0 15 6.597656 15 15zm0 0" fill="#32393f"/><path d="m75 90v-30c8.402344 0 15 6.597656 15 15 0 8.398438-6.597656 15-15 15zm0 0" fill="#32393f"/></svg>