<svg height="512pt" viewBox="-11 0 512 512" width="512pt" xmlns="http://www.w3.org/2000/svg"><g fill="#e4eaf8"><path d="m305.691406 105.390625c-2.589844-3.3125-2.003906-8.09375 1.308594-10.6875l92.285156-72.171875c3.3125-2.589844 8.097656-2.003906 10.683594 1.308594 2.589844 3.308594 2.007812 8.09375-1.304688 10.683594l-92.285156 72.171874c-3.308594 2.589844-8.09375 2.007813-10.6875-1.304687zm0 0"/><path d="m193.023438 216.132812c-2.960938-2.988281-2.9375-7.808593.046874-10.765624l92.800782-91.996094c2.988281-2.960938 7.808594-2.9375 10.765625.046875 2.960937 2.988281 2.9375 7.804687-.046875 10.765625l-92.804688 91.996094c-2.980468 2.957031-7.800781 2.9375-10.761718-.046876zm0 0"/><path d="m176.386719 222.457031-99.816407-49.65625c-3.765624-1.875-5.300781-6.441406-3.425781-10.207031 1.871094-3.765625 6.441407-5.296875 10.207031-3.425781l99.816407 49.660156c3.761719 1.871094 5.296875 6.441406 3.425781 10.203125-1.875 3.765625-6.449219 5.296875-10.207031 3.425781zm0 0"/></g><path d="m130.773438 351.753906h116.300781v152.632813h-116.300781zm0 0" fill="#ffc850"/><path d="m130.773438 351.753906h37.554687v152.632813h-37.554687zm0 0" fill="#feb644"/><path d="m125.769531 294.164062h-98.167969c-3.886718 0-7.035156 3.152344-7.035156 7.035157v203.191406h112.238282v-203.191406c0-3.882813-3.148438-7.035157-7.035157-7.035157zm0 0" fill="#f25c5c"/><path d="m56.089844 294.164062h-28.488282c-3.886718 0-7.035156 3.152344-7.035156 7.035157v203.191406h35.523438zm0 0" fill="#e54a4a"/><path d="m252.078125 240.492188c-3.882813 0-7.03125 3.148437-7.03125 7.035156v256.859375h114.269531v-263.894531zm0 0" fill="#6fd844"/><path d="m280.476562 240.492188h-28.398437c-3.882813 0-7.03125 3.148437-7.03125 7.035156v256.859375h35.429687zm0 0" fill="#5fbf32"/><path d="m462.488281 152.710938h-98.167969c-3.886718 0-7.035156 3.152343-7.035156 7.035156v344.640625h112.238282v-344.640625c0-3.882813-3.148438-7.035156-7.035157-7.035156zm0 0" fill="#00aaf0"/><path d="m392.808594 152.714844h-28.488282c-3.882812 0-7.035156 3.148437-7.035156 7.03125v344.644531h35.523438zm0 0" fill="#039add"/><path d="m482.476562 512h-474.863281c-4.207031 0-7.613281-3.40625-7.613281-7.613281 0-4.203125 3.40625-7.609375 7.613281-7.609375h474.863281c4.203126 0 7.613282 3.40625 7.613282 7.609375 0 4.207031-3.410156 7.613281-7.613282 7.613281zm0 0" fill="#707487"/><path d="m97.839844 162.605469c0 11.683593-9.472656 21.152343-21.15625 21.152343-11.679688 0-21.152344-9.46875-21.152344-21.152343 0-11.683594 9.472656-21.152344 21.152344-21.152344 11.683594 0 21.15625 9.46875 21.15625 21.152344zm0 0" fill="#f25c5c"/><path d="m210.078125 220.191406c0 11.683594-9.46875 21.15625-21.152344 21.15625-11.683593 0-21.152343-9.472656-21.152343-21.15625 0-11.679687 9.46875-21.152344 21.152343-21.152344 11.683594 0 21.152344 9.472657 21.152344 21.152344zm0 0" fill="#ffc850"/><path d="m322.316406 108.933594c0 11.679687-9.46875 21.152344-21.152344 21.152344-11.679687 0-21.152343-9.472657-21.152343-21.152344 0-11.683594 9.472656-21.15625 21.152343-21.15625 11.683594 0 21.152344 9.472656 21.152344 21.15625zm0 0" fill="#6fd844"/><path d="m434.558594 21.152344c0 11.683594-9.472656 21.152344-21.152344 21.152344-11.683594 0-21.152344-9.46875-21.152344-21.152344s9.46875-21.152344 21.152344-21.152344c11.679688 0 21.152344 9.46875 21.152344 21.152344zm0 0" fill="#00aaf0"/><path d="m81.160156 162.605469c0-6.859375 3.277344-12.9375 8.335938-16.800781-3.554688-2.71875-7.988282-4.351563-12.8125-4.351563-11.679688 0-21.152344 9.472656-21.152344 21.152344 0 11.683593 9.472656 21.15625 21.152344 21.15625 4.824218 0 9.257812-1.632813 12.8125-4.351563-5.058594-3.867187-8.335938-9.945312-8.335938-16.804687zm0 0" fill="#e54a4a"/><path d="m193.398438 220.191406c0-6.855468 3.28125-12.933594 8.339843-16.800781-3.558593-2.71875-7.992187-4.351563-12.8125-4.351563-11.683593 0-21.152343 9.472657-21.152343 21.152344 0 11.683594 9.46875 21.15625 21.152343 21.15625 4.820313 0 9.253907-1.632812 12.8125-4.351562-5.058593-3.863282-8.339843-9.941406-8.339843-16.804688zm0 0" fill="#feb644"/><path d="m305.640625 108.933594c0-6.859375 3.277344-12.941406 8.335937-16.804688-3.554687-2.71875-7.988281-4.351562-12.8125-4.351562-11.679687 0-21.152343 9.472656-21.152343 21.15625 0 11.679687 9.472656 21.152344 21.152343 21.152344 4.824219 0 9.257813-1.632813 12.8125-4.351563-5.058593-3.867187-8.335937-9.945313-8.335937-16.800781zm0 0" fill="#5fbf32"/><path d="m417.878906 21.152344c0-6.859375 3.277344-12.9375 8.339844-16.800782-3.558594-2.71875-7.992188-4.351562-12.8125-4.351562-11.683594 0-21.152344 9.46875-21.152344 21.152344s9.46875 21.152344 21.152344 21.152344c4.820312 0 9.253906-1.632813 12.8125-4.351563-5.0625-3.863281-8.339844-9.941406-8.339844-16.800781zm0 0" fill="#039add"/></svg>