<svg id="图层_1" data-name="图层 1" xmlns="http://www.w3.org/2000/svg" viewBox="0 0 239.97 312"><title>pending</title><path d="M-45,182.5c0-7.88,0-15.36,0-22.83.09-10.86-.25-21.77.52-32.59,1.27-17.85,9.59-32.59,21.91-45.23,11.37-11.67,25-20.28,39.18-28,1.84-1,3.7-2,6.24-3.34L16.31,47C.88,38.55-13.77,29.1-25.61,15.85-38.64,1.24-45.27-15.74-45-35.42c.17-13.87,0-27.75,0-41.62V-81.5c-3.88,0-7.47,0-11,0C-63.63-81.57-69-86.65-69-93.6s5.38-11.88,12.75-11.89q107.24,0,214.48,0c7.33,0,12.7,5.11,12.74,11.9s-5.29,12-12.57,12.08c-3.62.05-7.23,0-11.41,0v4.1c0,13.88-.16,27.75,0,41.62.29,20.58-7.12,38-21,52.92C113.69,30.41,98.58,39.85,82.72,48.23c-1,.53-2,1-3,1.57a6.82,6.82,0,0,0-.86.77c1.26.73,2.35,1.43,3.5,2,15.9,8.33,31,17.77,43.41,31,14,15,21.55,32.46,21.25,53.19-.2,13.75,0,27.5,0,41.25v4.48c3.86,0,7.44,0,11,0,7.58.05,13,5.12,12.95,12.07,0,6.8-5.39,11.9-12.73,11.9q-107.25,0-214.49,0c-7.33,0-12.7-5.11-12.75-11.9-.05-7,5.32-12,12.93-12.08C-52.57,182.48-49.07,182.5-45,182.5Zm168-.17c0-13.38,0-26.48,0-39.58a122.76,122.76,0,0,0-.4-13.84c-1.75-14.93-10.15-26-21.21-35.42C88,82.15,72.44,74.47,56.93,66.65c-4.42-2.22-8.1-3-12.39-.07C42,68.3,39,69.33,36.16,70.73,22.85,77.39,9.87,84.6-1.33,94.59c-13.07,11.67-20.41,25.84-19.75,43.83.42,11.35.08,22.74.08,34.11v9.8ZM-21-81.31V-77c0,13.12.38,26.25-.09,39.36C-21.75-19.39-14.34-5-.95,6.72c14.83,13,32.38,21.48,50.07,29.68a5.12,5.12,0,0,0,3.78-.3C59,33.23,65.07,30.3,71,27.17c12.75-6.7,25-14.09,35.39-24.3,11-10.86,17-23.71,16.65-39.49-.34-13.49-.07-27-.07-40.49v-4.2Z" transform="translate(68.99 105.5)"/></svg>