<svg width="32" height="32" viewBox="0 0 32 32" fill="none" xmlns="http://www.w3.org/2000/svg">
    <path
        d="M9.21143 18.1486C9.56329 18.2342 9.92363 18.2802 10.2857 18.2857C11.1936 18.2855 12.0808 18.0149 12.8343 17.5086L16.5143 20.7886C16.2228 21.3421 16.0517 21.9511 16.0123 22.5755C15.9729 23.1999 16.0661 23.8256 16.2857 24.4114C16.5164 25.0752 16.897 25.6768 17.398 26.1696C17.899 26.6624 18.5068 27.0331 19.1743 27.2528C19.8417 27.4726 20.5509 27.5355 21.2466 27.4367C21.9423 27.3378 22.6059 27.08 23.1858 26.683C23.7657 26.2861 24.2463 25.7609 24.5902 25.1481C24.9342 24.5353 25.1322 23.8515 25.1689 23.1497C25.2057 22.448 25.0802 21.7472 24.8021 21.1018C24.5241 20.4565 24.101 19.8839 23.5657 19.4286L26.4686 13.6114C27.0352 13.7392 27.6217 13.7514 28.1931 13.6474C28.7646 13.5433 29.3091 13.3251 29.7943 13.0057C30.6182 12.5029 31.2618 11.7522 31.6329 10.8612C32.004 9.97019 32.0836 8.98458 31.8602 8.04558C31.6368 7.10659 31.1219 6.26238 30.3894 5.63393C29.6568 5.00547 28.7441 4.62502 27.782 4.54707C26.82 4.46912 25.858 4.69768 25.0338 5.2C24.2096 5.70232 23.5655 6.45262 23.1939 7.34341C22.8222 8.2342 22.7421 9.21976 22.9649 10.1589C23.1877 11.098 23.7021 11.9425 24.4343 12.5714L21.5314 18.3886C21.2162 18.3193 20.8942 18.2848 20.5714 18.2857C19.6636 18.286 18.7764 18.5565 18.0229 19.0629L14.3429 15.7829C14.6344 15.2293 14.8055 14.6203 14.8449 13.9959C14.8842 13.3715 14.7911 12.7458 14.5714 12.16C14.3424 11.5011 13.9657 10.9033 13.47 10.4124C12.9743 9.92153 12.3729 9.55062 11.7117 9.32807C11.0506 9.10552 10.3473 9.03722 9.65566 9.12843C8.96405 9.21963 8.30248 9.46791 7.72163 9.85424C7.14078 10.2406 6.65605 10.7547 6.30456 11.3573C5.95307 11.9599 5.74416 12.6349 5.69381 13.3307C5.64346 14.0265 5.75302 14.7245 6.01409 15.3714C6.27516 16.0183 6.68082 16.5969 7.2 17.0629L2.28571 26.2857V0H0V29.7143C0 30.3205 0.240816 30.9019 0.66947 31.3305C1.09812 31.7592 1.67951 32 2.28571 32H32V29.7143H3.05143L9.21143 18.1486ZM27.4286 6.85714C27.8806 6.85714 28.3226 6.9912 28.6984 7.24236C29.0743 7.49351 29.3673 7.85049 29.5403 8.26815C29.7133 8.68581 29.7586 9.14539 29.6704 9.58878C29.5822 10.0322 29.3645 10.4394 29.0448 10.7591C28.7252 11.0788 28.3179 11.2965 27.8745 11.3847C27.4311 11.4728 26.9715 11.4276 26.5539 11.2546C26.1362 11.0816 25.7792 10.7886 25.5281 10.4127C25.2769 10.0368 25.1429 9.59493 25.1429 9.14286C25.1429 8.53665 25.3837 7.95527 25.8123 7.52661C26.241 7.09796 26.8224 6.85714 27.4286 6.85714ZM22.8571 22.8571C22.8571 23.3092 22.7231 23.7511 22.4719 24.127C22.2208 24.5029 21.8638 24.7959 21.4461 24.9689C21.0285 25.1419 20.5689 25.1871 20.1255 25.0989C19.6821 25.0107 19.2748 24.7931 18.9552 24.4734C18.6355 24.1537 18.4178 23.7465 18.3296 23.3031C18.2414 22.8597 18.2867 22.4001 18.4597 21.9824C18.6327 21.5648 18.9257 21.2078 19.3016 20.9566C19.6774 20.7055 20.1194 20.5714 20.5714 20.5714C21.1776 20.5714 21.759 20.8122 22.1877 21.2409C22.6163 21.6696 22.8571 22.2509 22.8571 22.8571ZM10.2857 11.4286C10.7378 11.4286 11.1797 11.5626 11.5556 11.8138C11.9315 12.0649 12.2244 12.4219 12.3974 12.8396C12.5704 13.2572 12.6157 13.7168 12.5275 14.1602C12.4393 14.6036 12.2216 15.0109 11.902 15.3305C11.5823 15.6502 11.175 15.8679 10.7316 15.9561C10.2882 16.0443 9.82867 15.999 9.41101 15.826C8.99335 15.653 8.63637 15.36 8.38521 14.9842C8.13406 14.6083 8 14.1664 8 13.7143C8 13.1081 8.24082 12.5267 8.66947 12.098C9.09813 11.6694 9.67951 11.4286 10.2857 11.4286Z"
        fill="url(#paint0_linear_139_975)" />
    <defs>
        <linearGradient id="paint0_linear_139_975" x1="0" y1="16" x2="32" y2="16" gradientUnits="userSpaceOnUse">
            <stop stop-color="#FA5FA6" />
            <stop offset="1" stop-color="#1D95F8" />
        </linearGradient>
    </defs>
</svg>