<svg width="42" height="41" viewBox="0 0 42 41" fill="none" xmlns="http://www.w3.org/2000/svg">
    <path
        d="M21 35.2C15.8958 35.2 11.3837 32.5867 8.74998 28.6667C8.81123 24.5834 16.9166 22.3375 21 22.3375C25.0833 22.3375 33.1887 24.5834 33.25 28.6667C31.9002 30.6765 30.0769 32.3236 27.9407 33.4629C25.8046 34.6022 23.421 35.1988 21 35.2ZM21 6.20837C22.6244 6.20837 24.1823 6.85368 25.331 8.00234C26.4797 9.151 27.125 10.7089 27.125 12.3334C27.125 13.9578 26.4797 15.5157 25.331 16.6644C24.1823 17.8131 22.6244 18.4584 21 18.4584C19.3755 18.4584 17.8176 17.8131 16.6689 16.6644C15.5203 15.5157 14.875 13.9578 14.875 12.3334C14.875 10.7089 15.5203 9.151 16.6689 8.00234C17.8176 6.85368 19.3755 6.20837 21 6.20837ZM21 0.083374C18.3188 0.083374 15.6639 0.611467 13.1869 1.6375C10.7098 2.66353 8.45908 4.16741 6.56322 6.06328C2.73435 9.89214 0.583313 15.0852 0.583313 20.5C0.583313 25.9149 2.73435 31.1079 6.56322 34.9368C8.45908 36.8327 10.7098 38.3365 13.1869 39.3626C15.6639 40.3886 18.3188 40.9167 21 40.9167C26.4148 40.9167 31.6079 38.7657 35.4367 34.9368C39.2656 31.1079 41.4166 25.9149 41.4166 20.5C41.4166 9.20962 32.2291 0.083374 21 0.083374Z"
        fill="url(#paint0_linear_591_388)" />
    <defs>
        <linearGradient id="paint0_linear_591_388" x1="0.583313" y1="20.5" x2="41.4166" y2="20.5"
            gradientUnits="userSpaceOnUse">
            <stop stop-color="#FA5FA6" />
            <stop offset="1" stop-color="#1D95F8" />
        </linearGradient>
    </defs>
</svg>