<svg width="44" height="32" viewBox="0 0 44 32" fill="none" xmlns="http://www.w3.org/2000/svg">
    <path
        d="M40.5 0H3.16667C2.45942 0 1.78115 0.280951 1.28105 0.781048C0.780951 1.28115 0.5 1.95942 0.5 2.66667V29.3333C0.5 30.0406 0.780951 30.7189 1.28105 31.219C1.78115 31.719 2.45942 32 3.16667 32H40.5C41.2072 32 41.8855 31.719 42.3856 31.219C42.8857 30.7189 43.1667 30.0406 43.1667 29.3333V2.66667C43.1667 1.95942 42.8857 1.28115 42.3856 0.781048C41.8855 0.280951 41.2072 0 40.5 0ZM23.1667 21.3333H9.83333C9.47971 21.3333 9.14057 21.1929 8.89052 20.9428C8.64048 20.6928 8.5 20.3536 8.5 20C8.5 19.6464 8.64048 19.3072 8.89052 19.0572C9.14057 18.8071 9.47971 18.6667 9.83333 18.6667H23.1667C23.5203 18.6667 23.8594 18.8071 24.1095 19.0572C24.3595 19.3072 24.5 19.6464 24.5 20C24.5 20.3536 24.3595 20.6928 24.1095 20.9428C23.8594 21.1929 23.5203 21.3333 23.1667 21.3333ZM33.8333 16H9.83333C9.47971 16 9.14057 15.8595 8.89052 15.6095C8.64048 15.3594 8.5 15.0203 8.5 14.6667C8.5 14.313 8.64048 13.9739 8.89052 13.7239C9.14057 13.4738 9.47971 13.3333 9.83333 13.3333H33.8333C34.187 13.3333 34.5261 13.4738 34.7761 13.7239C35.0262 13.9739 35.1667 14.313 35.1667 14.6667C35.1667 15.0203 35.0262 15.3594 34.7761 15.6095C34.5261 15.8595 34.187 16 33.8333 16ZM33.8333 10.6667H9.83333C9.47971 10.6667 9.14057 10.5262 8.89052 10.2761C8.64048 10.0261 8.5 9.68696 8.5 9.33333C8.5 8.97971 8.64048 8.64057 8.89052 8.39052C9.14057 8.14048 9.47971 8 9.83333 8H33.8333C34.187 8 34.5261 8.14048 34.7761 8.39052C35.0262 8.64057 35.1667 8.97971 35.1667 9.33333C35.1667 9.68696 35.0262 10.0261 34.7761 10.2761C34.5261 10.5262 34.187 10.6667 33.8333 10.6667Z"
        fill="url(#paint0_linear_139_980)" />
    <defs>
        <linearGradient id="paint0_linear_139_980" x1="0.5" y1="16" x2="43.1667" y2="16" gradientUnits="userSpaceOnUse">
            <stop stop-color="#FA5FA6" />
            <stop offset="1" stop-color="#1D95F8" />
        </linearGradient>
    </defs>
</svg>