<?xml version="1.0" encoding="utf-8"?>
<!-- Generator: Adobe Illustrator 26.3.1, SVG Export Plug-In . SVG Version: 6.00 Build 0)  -->
<svg version="1.1" id="图层_1" xmlns="http://www.w3.org/2000/svg" xmlns:xlink="http://www.w3.org/1999/xlink" x="0px" y="0px"
	 viewBox="0 0 256 256" style="enable-background:new 0 0 256 256;" xml:space="preserve">
<g>
	<path d="M241.2,14c-2.5-1.8-5.7-1.8-8,0c-10.6,7.9-20.3,14-28.8,18.2c-13,6.4-27.1,9.4-36.6,10.8c-4.6,0.6-8.8,3.2-11.5,7.2
		c-2.2,3.3-4.3,6.5-6.5,9.6l-2.2,3.1l0.1,0.1l-12,10.9l31.9,35.2l12.4-11.2l0.3,0.3l3.5-3.3c22.9-21.5,42.7-45.9,58.9-72.4
		C244.6,19.6,243.9,16,241.2,14z"/>
	<path d="M105.3,162.1l12.3-13.3l-24.2-22.4l-7.1,7.7l-0.1-0.1l-3.3,3.4c-2.9,2.9-5.3,5.4-7.3,7.4c-2.2-1.7-4.8-2.7-7.6-2.7
		c-3.3,0-6.3,1.3-8.6,3.6c-2.3,2.3-3.6,5.4-3.6,8.6c0,1.1,0.1,2.2,0.4,3.2c-1.2,0.6-2.3,1.4-3.2,2.4l-0.1,0.1
		c-2.1,2.1-3.4,4.6-3.9,7.4c-2.8,0.5-5.3,1.8-7.4,3.9c-2.1,2.1-3.4,4.6-3.9,7.4c-2.8,0.5-5.3,1.8-7.4,3.9c-1.1,1.1-1.9,2.3-2.6,3.6
		c-1.1-0.3-2.2-0.5-3.3-0.5c-3.3,0-6.3,1.3-8.6,3.6c-2.3,2.3-3.6,5.4-3.6,8.6c0,3.3,1.3,6.3,3.6,8.6L47.3,238c2,2,4.5,3.2,7.3,3.5
		l17.5,1.9c0.2,0,0.6,0.1,1.1,0.1c6.2,0,11.5-4.8,12.1-10.9c0.7-6.7-4.1-12.7-10.8-13.5l-13-1.4l-3.5-3.5c0.8-0.5,1.5-1.2,2.2-1.9
		c2-2.1,3.4-4.6,3.8-7.4c2.8-0.5,5.4-1.9,7.4-4c2.1-2.1,3.4-4.6,3.8-7.4c1.9-0.3,3.6-1,5.2-2.1l0.5,4.6c0.7,6.2,5.9,10.8,12.1,10.8
		c0.4,0,1,0,1.7-0.2c6.5-0.9,11.1-6.8,10.4-13.4l-1.9-17.3c-0.3-2.7-1.5-5.3-3.5-7.3l-1-1l6.1-6.1L105.3,162.1z"/>
	<path d="M240.7,191.8l-0.3-1.6l-1.1-1.1c-3.2-3.2-7.8-4.3-11.9-3.1c-0.7-1.3-1.5-2.5-2.6-3.6c-2.1-2.1-4.6-3.4-7.4-3.9
		c-0.5-2.8-1.8-5.3-3.9-7.4c-2.1-2.1-4.6-3.4-7.4-3.9c-0.5-2.8-1.8-5.3-3.9-7.4c-1-1-2.1-1.8-3.3-2.4c1.1-4.1,0.1-8.6-3.1-11.8
		c-2.3-2.3-5.4-3.6-8.6-3.6c-2.8,0-5.4,0.9-7.6,2.7c-8.5-8.5-21.4-21.9-38.9-40.9c-20.1-21.9-36.5-46.5-41.1-53.6
		c-2.6-4-6.8-6.6-11.5-7.2c-6.1-0.8-21.9-3.5-36.6-10.8C43,27.9,33.3,21.7,22.6,13.9c-1.1-0.9-2.5-1.3-3.9-1.3
		c-1.6,0-3.2,0.6-4.4,1.7c-2.3,2.1-2.8,5.6-1.2,8.2c27.3,44.4,64.8,83,108.5,111.4l1.5,1l33.1,33.1l-1,1c-1.9,1.9-3.1,4.4-3.5,7
		l-2,17.4c-0.7,6.7,4.1,12.7,10.8,13.5l0.3,0c0.2,0,0.6,0.1,1.1,0.1c6.2,0,11.5-4.8,12.1-10.9l0.5-4.6c1.6,1,3.3,1.8,5.2,2.1
		c0.5,2.8,1.8,5.4,3.9,7.4c2.1,2.1,4.6,3.4,7.4,3.9c0.5,2.8,1.8,5.4,3.9,7.4c0.7,0.7,1.4,1.3,2.2,1.8l-3.5,3.5l-13,1.4
		c-6.7,0.7-11.5,6.8-10.7,13.5c0.7,6.2,5.9,10.8,12.1,10.8c0.3,0,0.9,0,1.6-0.2l16.9-1.8c2.7-0.3,5.3-1.5,7.3-3.5
		c1.1-1.1,27.3-27.3,33.2-38.2l0.8-1.4L240.7,191.8z"/>
</g>
</svg>
