<?xml version="1.0" encoding="utf-8"?>
<!-- Generator: Adobe Illustrator 26.3.1, SVG Export Plug-In . SVG Version: 6.00 Build 0)  -->
<svg version="1.1" id="图层_1" xmlns="http://www.w3.org/2000/svg" xmlns:xlink="http://www.w3.org/1999/xlink" x="0px" y="0px"
	 viewBox="0 0 256 256" style="enable-background:new 0 0 256 256;" xml:space="preserve">
<g>
	<circle cx="18" cy="47.5" r="18"/>
	<circle cx="238" cy="47.5" r="18"/>
	<g>
		<path d="M243.1,131.6V44.5h-8.9v87.1c-1.8,0.8-3.5,2-4.8,3.6C216,83.2,175.6,45.5,128,45.5c-47.6,0-88,37.8-101.5,89.7
			c-1.4-1.6-3-2.8-4.8-3.6V44.5h-8.9v87.1c-5.1,2.2-8.9,8.1-8.9,15v42.6c0,8.8,6,16,13.3,16c4.2,0,7.9-2.4,10.3-6
			c7.6,16.2,21.9,27.3,38.4,27.3h124c16.5,0,30.8-11.1,38.4-27.3c2.4,3.6,6.1,6,10.3,6c7.3,0,13.3-7.2,13.3-16v-42.6
			C252,139.7,248.3,133.8,243.1,131.6z M167.9,183.9H88.1c-17.1,0-31-16.7-31-37.3c0-20.6,13.9-37.3,31-37.3h79.7
			c17.1,0,31,16.7,31,37.3C198.9,167.2,184.9,183.9,167.9,183.9z"/>
		<path d="M166.1,120H89.6c-11.7,0-21.2,11.9-21.2,26.6s9.5,26.6,21.2,26.6h76.5c11.7,0,21.2-11.9,21.2-26.6S177.8,120,166.1,120z
			 M98.4,161.5c-8,0-14.5-6.5-14.5-14.5s6.5-14.5,14.5-14.5s14.5,6.5,14.5,14.5S106.4,161.5,98.4,161.5z M157.4,161.5
			c-8,0-14.5-6.5-14.5-14.5s6.5-14.5,14.5-14.5s14.5,6.5,14.5,14.5S165.4,161.5,157.4,161.5z"/>
	</g>
</g>
</svg>
