<?xml version="1.0" encoding="utf-8"?>
<!-- Generator: Adobe Illustrator 26.3.1, SVG Export Plug-In . SVG Version: 6.00 Build 0)  -->
<svg version="1.1" id="图层_1" xmlns="http://www.w3.org/2000/svg" xmlns:xlink="http://www.w3.org/1999/xlink" x="0px" y="0px"
	 viewBox="0 0 256 256" style="enable-background:new 0 0 256 256;" xml:space="preserve">
<g>
	<g>
		<path d="M127.5,16c-65.6,0-119,47.1-119,105c0,24.5,9.7,48.2,27.3,67c3.5,14.4-0.7,29.6-11.2,40.1c-4.4,4.4-1.3,12,5,12
			c20,0,39.2-7.8,53.5-21.6c14.1,5,29.1,7.6,44.5,7.6c65.6,0,120-47.1,120-105S193.2,16,127.5,16z M72.5,142c-11.6,0-21-9.4-21-21
			s9.4-21,21-21s21,9.4,21,21S84,142,72.5,142z M128.5,142c-11.6,0-21-9.4-21-21s9.4-21,21-21s21,9.4,21,21S140,142,128.5,142z
			 M184.5,142c-11.6,0-21-9.4-21-21s9.4-21,21-21s21,9.4,21,21S196.1,142,184.5,142z"/>
	</g>
</g>
</svg>
