<?xml version="1.0" encoding="utf-8"?>
<!-- Generator: Adobe Illustrator 26.3.1, SVG Export Plug-In . SVG Version: 6.00 Build 0)  -->
<svg version="1.1" id="图层_1" xmlns="http://www.w3.org/2000/svg" xmlns:xlink="http://www.w3.org/1999/xlink" x="0px" y="0px"
	 viewBox="0 0 256 256" style="enable-background:new 0 0 256 256;" xml:space="preserve">
<g>
	<g>
		<path class="st0" d="M75.4,60.3v135.3h45h28.7l46.6-67.7l-46.6-67.7L75.4,60.3z"/>
	</g>
	<g>
		<path class="st1" d="M105.9,128L75.4,60.3h-37H4.5c-1.2,0-1.9,1.8-1.3,3.2l29,64.4l-29,64.4c-0.6,1.4,0.1,3.2,1.3,3.2h70.9
			L105.9,128z"/>
	</g>
	<g>
		<path class="st2" d="M149.1,60.3l30.5,67.6l-30.5,67.7H222c0.5,0,1-0.4,1.3-1l29.5-65.6c0.3-0.7,0.3-1.6,0-2.3l-29.5-65.5
			c-0.3-0.6-0.8-1-1.3-1h-31H149.1z"/>
	</g>
	<g>
		<path class="st3" d="M52.3,60.3L82.7,128l-30.4,67.7h23.2l30.5-67.7L75.4,60.3L52.3,60.3z"/>
	</g>
	<g>
		<path class="st4" d="M125.9,60.3l30.4,67.6l-30.4,67.7h23.2l30.5-67.7l-30.5-67.6L125.9,60.3z"/>
	</g>
	<g>
		<path class="st5" d="M199.6,60.3l30.5,67.6l-30.5,67.7H222c0.5,0,1-0.4,1.3-1l29.5-65.6c0.3-0.7,0.3-1.6,0-2.3l-29.5-65.5
			c-0.3-0.6-0.8-1-1.3-1H199.6z"/>
	</g>
</g>
<g>
	<g>
		<path class="st6" d="M36.3,86.6c-2.1,0-3.9-1.7-3.9-3.9V30.5c0-2.1,1.7-3.9,3.9-3.9c2.1,0,3.9,1.7,3.9,3.9v52.2
			C40.2,84.8,38.5,86.6,36.3,86.6z"/>
	</g>
	<g>
		<path class="st7" d="M36.3,30.5c8.4,0,15.2-6.8,15.2-15.2S44.7,0,36.3,0S21.1,6.8,21.1,15.2S27.9,30.5,36.3,30.5z"/>
	</g>
	<g>
		<path class="st8" d="M36.3,30.5c8.4,0,15.2-6.8,15.2-15.2S44.7,0,36.3,0c-1.8,0-3.5,0.3-5.2,0.9c5.6,2.2,9.6,7.7,9.6,14.2
			c0,6.6-4.2,12.2-10.1,14.4C32.4,30.1,34.3,30.5,36.3,30.5z"/>
	</g>
</g>
<g>
	<g>
		<path class="st6" d="M192.7,86.6c-2.1,0-3.9-1.7-3.9-3.9V30.5c0-2.1,1.7-3.9,3.9-3.9s3.9,1.7,3.9,3.9v52.2
			C196.6,84.8,194.9,86.6,192.7,86.6z"/>
	</g>
	<g>
		<path class="st7" d="M192.7,0c-8.4,0-15.2,6.8-15.2,15.2c0,8.4,6.8,15.2,15.2,15.2c8.4,0,15.2-6.8,15.2-15.2S201.1,0,192.7,0z"/>
	</g>
	<g>
		<path class="st8" d="M187.6,0.9c5.6,2.2,9.6,7.7,9.6,14.2c0,6.6-4.2,12.2-10.1,14.4c1.7,0.7,3.6,1.1,5.6,1.1
			c8.4,0,15.2-6.8,15.2-15.2S201.1,0,192.7,0C190.9,0,189.2,0.3,187.6,0.9z"/>
	</g>
</g>
<g>
	<g>
		<path class="st6" d="M114.5,229.7c-2.1,0-3.9-1.7-3.9-3.9v-52.2c0-2.1,1.7-3.9,3.9-3.9s3.9,1.7,3.9,3.9v52.2
			C118.4,228,116.7,229.7,114.5,229.7z"/>
	</g>
	<g>
		<path class="st7" d="M129.8,241.1c0-8.4-6.8-15.2-15.2-15.2s-15.2,6.8-15.2,15.2c0,8.4,6.8,15.2,15.2,15.2
			S129.8,249.5,129.8,241.1z"/>
	</g>
	<g>
		<path class="st8" d="M129.8,241.1c0-8.4-6.8-15.2-15.2-15.2c-1.8,0-3.5,0.3-5.2,0.9c5.6,2.2,9.6,7.7,9.6,14.2
			c0,6.6-4.2,12.2-10.1,14.4c1.7,0.7,3.6,1.1,5.6,1.1C122.9,256.3,129.8,249.5,129.8,241.1z"/>
	</g>
</g>
</svg>
