<?xml version="1.0" encoding="utf-8"?>
<!-- Generator: Adobe Illustrator 26.3.1, SVG Export Plug-In . SVG Version: 6.00 Build 0)  -->
<svg version="1.1" id="图层_1" xmlns="http://www.w3.org/2000/svg" xmlns:xlink="http://www.w3.org/1999/xlink" x="0px" y="0px"
	 viewBox="0 0 256 256" style="enable-background:new 0 0 256 256;" xml:space="preserve">
<g>
	<g>
		<g>
			<path d="M72.2,101.2h41V256h-41V101.2z"/>
			<path d="M142.8,134h41v122h-41V134z"/>
			<path d="M213.3,76h41V256h-41V76z"/>
			<path d="M1.7,159.7h41V256h-41V159.7z"/>
		</g>
	</g>
	<path d="M232.4,0c-11.5,0-20.8,9.3-20.8,20.8c0,2.7,0.5,5.2,1.4,7.6l-40,34.1c-2.9-1.6-6.3-2.5-9.9-2.5c-5.9,0-11.3,2.5-15.1,6.5
		l-34.6-14.2c0-0.1,0-0.3,0-0.4c0-11.5-9.3-20.8-20.8-20.8S72,40.4,72,51.9c0,1.2,0.1,2.3,0.3,3.4L36.4,76.5
		c-3.5-2.8-8-4.5-12.8-4.5c-11.5,0-20.8,9.3-20.8,20.8s9.3,20.8,20.8,20.8s20.8-9.3,20.8-20.8c0-1.2-0.1-2.3-0.3-3.4L80,68.2
		c3.5,2.8,8,4.5,12.8,4.5c5.9,0,11.3-2.5,15.1-6.5l34.6,14.2c0,0.1,0,0.3,0,0.4c0,11.5,9.3,20.8,20.8,20.8
		c11.5,0,20.8-9.3,20.8-20.8c0-2.4-0.4-4.7-1.2-6.9l40.5-34.5c2.8,1.4,5.9,2.1,9.2,2.1c11.5,0,20.8-9.3,20.8-20.8S243.9,0,232.4,0
		L232.4,0z"/>
</g>
</svg>
